<svg width="512" height="96" viewBox="0 0 512 96" fill="none" xmlns="http://www.w3.org/2000/svg">
<g clip-path="url(#clip0_489_2)">
<path d="M96 0H0V96H96V0Z" fill="#FAAA19"/>
<path d="M200 0H104V96H200V0Z" fill="#FAAA19"/>
<path d="M304 0H208V96H304V0Z" fill="#FAAA19"/>
<path d="M408 0H312V96H408V0Z" fill="#FAAA19"/>
<path d="M512 0H416V96H512V0Z" fill="#FAAA19"/>
<path d="M48.0004 64.7002L62.6004 61.0002L68.7004 79.8002L48.0004 64.7002ZM81.6004 40.4002H55.9004L48.0004 16.2002L40.1004 40.4002H14.4004L35.2004 55.4002L27.3004 79.6002L48.1004 64.6002L60.9004 55.4002L81.6004 40.4002Z" fill="white"/>
<path d="M152 64.7002L166.6 61.0002L172.7 79.8002L152 64.7002ZM185.6 40.4002H159.9L152 16.2002L144.1 40.4002H118.4L139.2 55.4002L131.3 79.6002L152.1 64.6002L164.9 55.4002L185.6 40.4002Z" fill="white"/>
<path d="M256 64.7002L270.6 61.0002L276.7 79.8002L256 64.7002ZM289.6 40.4002H263.9L256 16.2002L248.1 40.4002H222.4L243.2 55.4002L235.3 79.6002L256.1 64.6002L268.9 55.4002L289.6 40.4002Z" fill="white"/>
<path d="M360 64.7002L374.6 61.0002L380.7 79.8002L360 64.7002ZM393.6 40.4002H367.9L360 16.2002L352.1 40.4002H326.4L347.2 55.4002L339.3 79.6002L360.1 64.6002L372.9 55.4002L393.6 40.4002Z" fill="white"/>
<path d="M464 64.7002L478.6 61.0002L484.7 79.8002L464 64.7002ZM497.6 40.4002H471.9L464 16.2002L456.1 40.4002H430.4L451.2 55.4002L443.3 79.6002L464.1 64.6002L476.9 55.4002L497.6 40.4002Z" fill="white"/>
</g>
<defs>
<clipPath id="clip0_489_2">
<rect width="512" height="96" fill="white"/>
</clipPath>
</defs>
</svg>
